<?xml version="1.0" encoding="UTF-8"?><svg xmlns="http://www.w3.org/2000/svg" xmlns:xlink="http://www.w3.org/1999/xlink" height="226.8" preserveAspectRatio="xMidYMid meet" version="1.0" viewBox="101.6 99.2 227.3 226.8" width="227.3" zoomAndPan="magnify"><g><g id="change1_1"><path d="M 193.640625 207.183594 L 111.132812 207.183594 C 111.132812 207.183594 111.132812 270.0625 154.246094 306.238281 L 240.8125 306.238281 C 283.933594 270.0625 283.933594 207.183594 283.933594 207.183594 L 193.640625 207.183594" fill="#e1dcc9"/></g><g id="change2_1"><path d="M 240.8125 306.238281 L 154.246094 306.238281 C 111.308594 270.214844 111.132812 207.703125 111.132812 207.1875 C 111.132812 207.1875 111.132812 207.1875 111.132812 207.183594 L 135.617188 207.183594 C 150.125 226.261719 183.6875 274.253906 265.976562 275.0625 C 259.886719 286.199219 251.734375 297.074219 240.8125 306.238281" fill="#d9d2bc"/></g><g id="change1_2"><path d="M 101.648438 303.167969 C 102.222656 315.863281 124.640625 325.984375 136.050781 325.984375 L 259.011719 325.984375 C 270.421875 325.984375 292.839844 315.863281 293.410156 303.167969 L 101.648438 303.167969" fill="#e1dcc9"/></g><g id="change3_1"><path d="M 110.5 316.511719 C 118.1875 322.265625 129.136719 325.984375 136.050781 325.984375 L 259.011719 325.984375 C 265.925781 325.984375 276.875 322.265625 284.5625 316.511719 L 110.5 316.511719" fill="#c6bca0"/></g><g id="change1_3"><path d="M 283.347656 216.699219 C 283.347656 216.699219 315.480469 200.578125 322.816406 225.160156 C 328.949219 245.714844 295.566406 273.246094 263.882812 278.738281 L 266.6875 273.222656 C 266.6875 273.222656 318.84375 242.503906 308.140625 228.09375 C 298.601562 215.253906 281.355469 230.664062 281.355469 230.664062 L 283.347656 216.699219" fill="#e1dcc9"/></g><g id="change4_2"><path d="M 202.847656 202.429688 C 202.847656 202.429688 227.796875 183.839844 223.394531 156.9375 C 218.988281 130.03125 194.53125 115.847656 202.847656 99.214844 C 202.847656 99.214844 187.683594 109.488281 190.144531 127.585938 C 192.277344 143.285156 219.480469 181.394531 202.847656 202.429688" fill="#9e9070"/></g><g id="change4_1"><path d="M 179.882812 202.429688 C 179.882812 202.429688 196.667969 189.917969 193.703125 171.8125 C 190.742188 153.707031 174.28125 144.160156 179.882812 132.964844 C 179.882812 132.964844 169.675781 139.878906 171.328125 152.0625 C 172.765625 162.625 191.070312 188.273438 179.882812 202.429688" fill="#9e9070"/></g></g></svg>